<svg width="341" height="128" viewBox="0 0 341 128" fill="none" xmlns="http://www.w3.org/2000/svg">
<path d="M324.305 0.000517106C333.507 0.0451352 340.956 7.50832 341 16.7277C341 33.6191 310.31 50.3467 310.31 50.3467C310.31 50.3467 279.62 33.3734 279.62 16.7277C279.62 7.48925 287.095 0.000517106 296.316 0.000517106C301.96 -0.0441009 307.237 2.80121 310.31 7.54434C313.405 2.82383 318.668 -0.0126798 324.305 0.000517106Z" fill="#E42D24"/>
<path d="M60.7155 16.8752L39.8015 49.9512L18.4533 16.8752H18.0917V47.2511H0V0H25.6903L39.8015 23.2881H40.1631L53.9129 0H79.2414V47.2511H61.1495L61.0771 16.8752H60.7155ZM116.169 34.7635C118.098 34.7635 119.546 34.392 120.511 33.65C121.476 32.9069 121.959 31.9284 121.959 30.7134C121.959 29.4981 121.476 28.5188 120.511 27.7767C119.546 27.0346 118.098 26.6631 116.169 26.6631H104.591V34.7635H116.169ZM86.4993 47.2504V0H104.591V14.1753H116.892C124.901 14.1753 130.883 15.6498 134.839 18.5971C138.795 21.5451 140.774 25.5828 140.774 30.7134C140.774 35.8429 138.795 39.8823 134.839 42.8285C130.883 45.7777 124.901 47.2504 116.892 47.2504H86.4993ZM163.569 47.2511H145.477V0.000963713H163.569V47.2511Z" fill="#26438A"/>
<path d="M195.512 47.1762H175.535L196.939 14.49V13.8163H169.114V0H219.055V11.1201L195.511 47.176L195.512 47.1762ZM263.844 47.1762H245.294V38.7511H213.903V27.295L237.804 0H259.207L236.377 25.6101V26.2837H245.294V18.8709H263.844V26.2837H271.692V38.7511H263.844V47.1762Z" fill="#26438A"/>
<path d="M9.03317 94.0599C7.37428 94.0599 5.8839 93.7069 4.56145 93.0007C3.23879 92.2945 2.20038 91.3178 1.44581 90.0709C0.691032 88.8239 0.31375 87.4193 0.31375 85.8566C0.31375 84.294 0.691032 82.8893 1.44581 81.6422C2.20038 80.3951 3.23899 79.4187 4.56145 78.7125C5.8839 78.0065 7.37428 77.6533 9.03317 77.6533C10.6919 77.6533 12.1824 78.0065 13.5049 78.7125C14.8276 79.4187 15.866 80.3954 16.6205 81.6422C17.3751 82.8893 17.7526 84.294 17.7526 85.8566C17.7526 87.4193 17.3751 88.8239 16.6205 90.0709C15.866 91.318 14.8274 92.2945 13.5049 93.0007C12.1824 93.7069 10.6919 94.0599 9.03317 94.0599ZM9.03317 90.364C9.82508 90.364 10.5425 90.1761 11.1851 89.8005C11.8276 89.4249 12.3357 88.8952 12.7093 88.2116C13.0831 87.528 13.2697 86.7428 13.2697 85.8566C13.2697 84.9702 13.0831 84.1852 12.7093 83.5016C12.3357 82.818 11.8276 82.2883 11.1851 81.9127C10.5425 81.5371 9.82508 81.3494 9.03317 81.3494C8.24106 81.3494 7.52382 81.5371 6.88126 81.9127C6.2387 82.2883 5.73044 82.818 5.35687 83.5016C4.9833 84.1854 4.79662 84.9704 4.79662 85.8566C4.79662 86.743 4.9833 87.5282 5.35687 88.2116C5.73044 88.8952 6.2387 89.4249 6.88126 89.8005C7.52382 90.1761 8.24106 90.364 9.03317 90.364ZM20.1283 77.9688H33.2411V81.417H24.4992V83.9635H28.5563C30.4542 83.9635 31.911 84.3691 32.9273 85.1805C33.9434 85.9918 34.4515 87.1564 34.4515 88.6737C34.4515 90.2663 33.8836 91.5095 32.7478 92.4034C31.6121 93.2975 30.0208 93.7444 27.9735 93.7444H20.1283V77.9688ZM27.6821 90.5442C28.4292 90.5442 28.9971 90.3941 29.3857 90.0936C29.7743 89.793 29.9685 89.3648 29.9685 88.8089C29.9685 87.6971 29.2065 87.141 27.6823 87.141H24.4994V90.544H27.6823L27.6821 90.5442ZM58.0094 77.9688V93.7444H36.7377V77.9688H41.1086V90.2062H45.2106V77.9688H49.5815V90.2062H53.6386V77.9688H58.0094ZM60.0493 90.2062V96.922H55.9697V93.7444H53.549V90.2062H60.0495H60.0493ZM74.776 90.2964V93.7444H62.1787V77.9688H74.4845V81.417H66.5721V84.0761H73.5431V87.4115H66.5721V90.2962H74.776V90.2964ZM84.9299 94.0599C83.286 94.0599 81.8105 93.7106 80.5029 93.0119C79.1953 92.3133 78.168 91.3404 77.4209 90.0936C76.6738 88.8465 76.3002 87.4343 76.3002 85.8566C76.3002 84.2789 76.6738 82.8669 77.4209 81.6198C78.168 80.3727 79.1955 79.4 80.5029 78.7013C81.8105 78.0026 83.286 77.6533 84.9299 77.6533C86.3646 77.6533 87.6569 77.9088 88.8075 78.4196C89.9583 78.9305 90.9146 79.6667 91.6766 80.6282L88.8525 83.1973C87.8364 81.9654 86.6036 81.3494 85.1541 81.3494C84.3022 81.3494 83.5439 81.5371 82.8791 81.9127C82.214 82.2883 81.6985 82.818 81.3324 83.5016C80.9662 84.1854 80.7831 84.9704 80.7831 85.8566C80.7831 86.743 80.9662 87.5282 81.3324 88.2116C81.6985 88.8952 82.214 89.4249 82.8791 89.8005C83.5441 90.1761 84.3024 90.364 85.1541 90.364C86.6036 90.364 87.8364 89.748 88.8525 88.5159L91.6766 91.0849C90.9144 92.0467 89.9581 92.7827 88.8075 93.2937C87.6569 93.8046 86.3646 94.0599 84.9299 94.0599ZM106.179 81.507H101.382V93.7444H97.0114V81.507H92.1921V77.9688H106.179V81.507ZM119.651 85.4961C120.577 85.7964 121.283 86.2623 121.769 86.8934C122.254 87.5245 122.497 88.3058 122.497 89.237C122.497 90.6345 121.956 91.7347 120.872 92.5386C119.789 93.3425 118.253 93.7444 116.266 93.7444H108.219V77.9688H115.84C117.723 77.9688 119.184 78.3257 120.222 79.0394C121.261 79.753 121.78 80.7635 121.78 82.0705C121.78 82.8368 121.597 83.513 121.231 84.0989C120.865 84.6848 120.338 85.1506 119.651 85.4963V85.4961ZM112.59 84.2789H115.414C116.669 84.2789 117.297 83.7606 117.297 82.7238C117.297 81.6872 116.669 81.1687 115.414 81.1687H112.59V84.2787V84.2789ZM116.087 90.5442C117.372 90.5442 118.014 89.9959 118.014 88.8989C118.014 87.8323 117.372 87.2988 116.087 87.2988H112.59V90.544H116.087V90.5442ZM137.493 90.2964V93.7444H124.896V77.9688H137.201V81.417H129.289V84.0761H136.26V87.4115H129.289V90.2962H137.493V90.2964ZM154.954 77.9688V93.7444H150.516V87.5919H144.464V93.7444H140.026V77.9688H144.464V83.896H150.516V77.9688H154.954ZM173.245 77.9688V93.7444H168.806V87.5919H162.754V93.7444H158.316V77.9688H162.754V83.896H168.806V77.9688H173.245ZM184.317 94.0599C182.659 94.0599 181.168 93.7069 179.846 93.0007C178.523 92.2945 177.485 91.3178 176.73 90.0709C175.975 88.8239 175.598 87.4193 175.598 85.8566C175.598 84.294 175.975 82.8893 176.73 81.6422C177.485 80.3951 178.523 79.4187 179.846 78.7125C181.168 78.0065 182.659 77.6533 184.317 77.6533C185.976 77.6533 187.467 78.0065 188.789 78.7125C190.112 79.4187 191.15 80.3954 191.905 81.6422C192.659 82.8893 193.037 84.294 193.037 85.8566C193.037 87.4193 192.659 88.8239 191.905 90.0709C191.15 91.318 190.112 92.2945 188.789 93.0007C187.467 93.7069 185.976 94.0599 184.317 94.0599ZM184.317 90.364C185.109 90.364 185.827 90.1761 186.469 89.8005C187.112 89.4249 187.62 88.8952 187.994 88.2116C188.367 87.528 188.554 86.7428 188.554 85.8566C188.554 84.9702 188.367 84.1852 187.994 83.5016C187.62 82.818 187.112 82.2883 186.469 81.9127C185.827 81.5371 185.109 81.3494 184.317 81.3494C183.525 81.3494 182.808 81.5371 182.166 81.9127C181.523 82.2883 181.015 82.818 180.641 83.5016C180.268 84.1854 180.081 84.9704 180.081 85.8566C180.081 86.743 180.268 87.5282 180.641 88.2116C181.015 88.8952 181.523 89.4249 182.166 89.8005C182.808 90.1761 183.525 90.364 184.317 90.364ZM208.01 90.2964V93.7444H195.413V77.9688H207.719V81.417H199.806V84.0761H206.777V87.4115H199.806V90.2962H208.01V90.2964ZM18.1784 121.284V128H14.1215V124.822H4.07939V128H0V121.284H0.560257C1.48686 121.269 2.14056 120.631 2.52176 119.368C2.90276 118.106 3.13813 116.289 3.22787 113.915L3.40711 109.047H16.0491V121.284H18.1786L18.1784 121.284ZM7.10549 114.298C7.04588 115.981 6.91139 117.408 6.70202 118.58C6.49285 119.752 6.17168 120.653 5.73829 121.284H11.6783V112.585H7.17275L7.10549 114.298ZM31.7396 116.574C32.666 116.874 33.3721 117.34 33.8578 117.971C34.3434 118.603 34.5864 119.384 34.5864 120.315C34.5864 121.712 34.0445 122.813 32.9612 123.617C31.8778 124.42 30.3424 124.822 28.3549 124.822H20.308V109.047H27.929C29.8119 109.047 31.2725 109.404 32.3112 110.117C33.3498 110.831 33.869 111.841 33.869 113.149C33.869 113.915 33.686 114.591 33.3199 115.177C32.9537 115.763 32.4269 116.229 31.7396 116.574V116.574ZM24.6788 115.357H27.5032C28.7584 115.357 29.3861 114.839 29.3861 113.802C29.3861 112.765 28.7584 112.247 27.5032 112.247H24.6788V115.357V115.357ZM28.1757 121.622C29.4608 121.622 30.1034 121.074 30.1034 119.977C30.1034 118.91 29.4608 118.377 28.1757 118.377H24.6788V121.622H28.1757V121.622ZM36.9846 109.047H41.3555V118.309L47.8335 109.047H52.0028V124.822H47.6317V115.582L41.1762 124.822H36.9846V109.047ZM70.1586 118.783H68.2982V124.823H63.9496V118.783H62.089L59.0183 124.823H53.8853L58.3459 116.552L54.1543 109.047H58.8166L61.9545 115.177H63.9496V109.047H68.2982V115.177H70.2034L73.4088 109.047H78.0486L73.857 116.552L78.3176 124.823H73.207L70.1586 118.783ZM92.3495 121.374V124.822H79.7523V109.047H92.0581V112.495H84.1456V115.154H91.1166V118.489H84.1456V121.374H92.3495V121.374ZM109.811 109.047V124.822H105.373V118.67H99.3203V124.822H94.8822V109.047H99.3203V114.974H105.373V109.047H109.811ZM113.173 109.047H117.544V118.309L124.022 109.047H128.191V124.822H123.82V115.582L117.364 124.822H113.173V109.047ZM144.15 121.374V124.822H131.553V109.047H143.859V112.495H135.946V115.154H142.917V118.489H135.946V121.374H144.15V121.374Z" fill="#26438A"/>
</svg>
