<svg width="200" height="80" viewBox="0 0 200 80" fill="none" xmlns="http://www.w3.org/2000/svg">
<path fill-rule="evenodd" clip-rule="evenodd" d="M199.521 2.39261C199.769 1.15492 198.822 0 197.56 0H17.6552C16.702 0 15.8812 0.672721 15.6941 1.60739L0.478998 77.6074C0.231214 78.8451 1.17783 80 2.44008 80H182.345C183.298 80 184.119 79.3273 184.306 78.3926L199.521 2.39261Z" fill="#E31E24"/>
<path d="M23.7698 47H26.7391L30.4744 57.4705L34.2308 47H37.1895L39.8752 62H36.927L35.217 52.5298L31.8174 62H29.121L25.7318 52.5298L23.9899 62H21L23.7698 47ZM54.0501 47V62H51.0069V52.6076L44.9638 62H42.3306V47H45.3734V56.6956L51.5214 47H54.0501ZM56.1593 47H65.0355V49.8238H62.0976V62H58.9921V49.8238H56.1593V47ZM67.1338 47H75.9053V49.8042H70.1766V52.4997H75.9053V55.2547H70.1766V59.2058H75.9053V62H67.1338V47ZM89.1468 62L84.6873 51.0099L80.1652 62H76.9233L83.1241 47H86.2296L92.4095 62H89.1468ZM94.2352 62V47H97.2781V52.6666H97.939C99.2193 52.6666 100.289 52.804 101.14 53.0784C101.989 53.3526 102.724 53.873 103.343 54.6468C103.962 55.4211 104.276 56.3526 104.276 57.4313C104.276 58.4609 104.014 59.3335 103.479 60.0488C102.944 60.7643 102.325 61.2643 101.622 61.5584C100.929 61.8626 99.9639 62 98.7366 62H94.2352ZM97.2781 55.2155V59.2843H98.0441C99.3237 59.2843 100.174 59.1371 100.604 58.853C101.045 58.5586 101.254 58.0584 101.254 57.3528C101.254 55.9212 100.142 55.2155 97.9179 55.2155H97.2781ZM108.494 47H111.453L115.198 57.4705L118.955 47H121.903L124.599 62H121.651L119.941 52.5298L116.541 62H113.835L110.456 52.5298L108.704 62H105.724L108.494 47ZM131.986 47H135.06L141.24 62H138.061L136.812 58.9119H130.234L128.954 62H125.775L131.986 47ZM133.528 50.9898L131.356 56.1567H135.689L133.528 50.9898ZM143.601 47H146.706V52.6666H152.068V47H155.153V62H152.068V55.4211H146.706V62H143.601V47ZM163.736 47H166.82L173 62H169.821L168.562 58.9119H161.983L160.703 62H157.524L163.736 47ZM165.278 50.9898L163.106 56.1567H167.449L165.278 50.9898Z" fill="#FEFEFE"/>
<path d="M40 19.4019H43.0871V24.9988L47.4347 19.4019H51.1201L45.5123 26.6276L51.6662 35.588H48.0327L43.0871 28.3841V35.588H40V19.4019ZM61.4316 19C63.6997 19 65.6531 19.825 67.2912 21.4861C68.9291 23.1368 69.7481 25.1675 69.7481 27.5478C69.7481 29.9075 68.9394 31.9064 67.3221 33.546C65.7161 35.1755 63.7524 36.0005 61.4527 36.0005C59.0375 36.0005 57.0319 35.1549 55.446 33.4718C53.8504 31.8006 53.0526 29.8011 53.0526 27.4843C53.0526 25.9397 53.4198 24.522 54.1651 23.2209C54.9004 21.9199 55.9291 20.8935 57.2211 20.1315C58.5229 19.3806 59.9299 19 61.4316 19ZM61.3793 22.0145C59.8985 22.0145 58.6597 22.5441 57.6516 23.5811C56.6434 24.6174 56.1393 25.9397 56.1393 27.5478C56.1393 29.3461 56.7688 30.7532 58.0399 31.8006C59.0271 32.6152 60.1612 33.0176 61.4424 33.0176C62.8808 33.0176 64.1091 32.488 65.1277 31.4299C66.1466 30.3831 66.6504 29.0819 66.6504 27.5267C66.6504 25.9925 66.1466 24.6809 65.1173 23.6229C64.0987 22.5542 62.8493 22.0145 61.3793 22.0145ZM74.1901 19.4019H77.1508L80.8995 30.6901L84.6591 19.4019H87.6101L90.3085 35.588H87.3577L85.6359 25.3689L82.2438 35.588H79.535L76.1529 25.3689L74.4003 35.588H71.4178L74.1901 19.4019ZM97.7006 19.4019H100.777L106.962 35.588H103.78L102.531 32.2555H95.9471L94.6556 35.588H91.4736L97.7006 19.4019ZM99.2443 23.7076L97.0709 29.2827H101.408L99.2443 23.7076ZM109.314 19.4019H112.433V25.5171H117.798V19.4019H120.886V35.588H117.798V28.4895H112.433V35.588H109.314V19.4019ZM129.78 19.4019H132.878L138.065 32.7104H139.85V38H136.899V35.588H125.8V38H122.839V32.7104H124.624L129.78 19.4019ZM131.355 23.6553L127.826 32.7104H134.883L131.355 23.6553ZM146.728 19.4019H149.815L156 35.588H152.818L151.558 32.2555H144.975L143.693 35.588H140.512L146.728 19.4019ZM148.271 23.7076L146.098 29.2827H150.445L148.271 23.7076Z" fill="#FEFEFE"/>
</svg>
