<svg width="315" height="70" viewBox="0 0 315 70" fill="none" xmlns="http://www.w3.org/2000/svg">
<path d="M174.375 21.5887C179.29 21.6124 183.268 25.5886 183.292 30.5004C183.292 39.4996 166.9 48.4115 166.9 48.4115C166.9 48.4115 150.508 39.3687 150.508 30.5004C150.508 25.5784 154.5 21.5887 159.425 21.5887C162.44 21.5649 165.258 23.0808 166.9 25.6078C168.553 23.0928 171.364 21.5816 174.375 21.5887Z" fill="#E42D24"/>
<path d="M32.6353 30.6501L21.3937 48.4115L9.91885 30.6501H9.72449V46.9616H0V21.5884H13.8088L21.3937 34.0938H21.5881L28.9788 21.5884H42.5931V46.9616H32.8685L32.8296 30.6501H32.6353ZM62.4422 40.2559C63.4792 40.2559 64.2572 40.0564 64.7761 39.658C65.2946 39.259 65.5542 38.7335 65.5542 38.0811C65.5542 37.4284 65.2946 36.9026 64.7761 36.5041C64.2572 36.1056 63.4792 35.9061 62.4422 35.9061H56.2189V40.2559H62.4422ZM46.4944 46.9612V21.5884H56.2189V29.2003H62.831C67.1355 29.2003 70.3513 29.9921 72.4777 31.5748C74.6041 33.1578 75.6675 35.326 75.6675 38.0811C75.6675 40.8355 74.6041 43.0047 72.4777 44.5867C70.3513 46.1704 67.1355 46.9612 62.831 46.9612H46.4944ZM87.9203 46.9616H78.1958V21.5889H87.9203V46.9616Z" fill="#26438A"/>
<path d="M105.089 46.9213H94.3519L105.856 29.3693V29.0076H90.9004V21.5884H117.744V27.5597L105.089 46.9212L105.089 46.9213ZM141.819 46.9213H131.848V42.3972H114.975V36.2454L127.822 21.5884H139.326L127.055 35.3407V35.7024H131.848V31.7218H141.819V35.7024H146.037V42.3972H141.819V46.9213Z" fill="#26438A"/>
<path d="M208.091 30.3293C207.199 30.3293 206.399 30.1412 205.688 29.765C204.977 29.3887 204.42 28.8684 204.014 28.2041C203.609 27.5397 203.406 26.7914 203.406 25.9588C203.406 25.1263 203.609 24.378 204.014 23.7136C204.42 23.0491 204.978 22.5289 205.688 22.1527C206.399 21.7765 207.199 21.5884 208.091 21.5884C208.982 21.5884 209.783 21.7765 210.493 22.1527C211.204 22.5289 211.762 23.0492 212.167 23.7136C212.573 24.378 212.776 25.1263 212.776 25.9588C212.776 26.7914 212.573 27.5397 212.167 28.2041C211.762 28.8685 211.204 29.3887 210.493 29.765C209.783 30.1412 208.982 30.3293 208.091 30.3293ZM208.091 28.3602C208.516 28.3602 208.902 28.2601 209.247 28.06C209.592 27.8599 209.865 27.5777 210.066 27.2135C210.267 26.8493 210.367 26.431 210.367 25.9588C210.367 25.4866 210.267 25.0683 210.066 24.7041C209.865 24.3399 209.592 24.0577 209.247 23.8576C208.902 23.6575 208.516 23.5575 208.091 23.5575C207.665 23.5575 207.28 23.6575 206.935 23.8576C206.589 24.0577 206.316 24.3399 206.116 24.7041C205.915 25.0684 205.815 25.4867 205.815 25.9588C205.815 26.4311 205.915 26.8494 206.116 27.2135C206.316 27.5777 206.589 27.8599 206.935 28.06C207.28 28.2601 207.665 28.3602 208.091 28.3602ZM214.052 21.7564H221.098V23.5935H216.401V24.9502H218.58C219.6 24.9502 220.383 25.1663 220.929 25.5986C221.475 26.0309 221.748 26.6513 221.748 27.4597C221.748 28.3082 221.443 28.9705 220.833 29.4467C220.222 29.9231 219.367 30.1612 218.267 30.1612H214.052V21.7564ZM218.111 28.4563C218.512 28.4563 218.817 28.3763 219.026 28.2161C219.235 28.056 219.339 27.8279 219.339 27.5317C219.339 26.9394 218.93 26.6431 218.111 26.6431H216.401V28.4562H218.111L218.111 28.4563ZM234.406 21.7564V30.1612H222.976V21.7564H225.325V28.2762H227.529V21.7564H229.877V28.2762H232.057V21.7564H234.406ZM235.502 28.2762V31.8541H233.31V30.1612H232.009V28.2762H235.502H235.502ZM243.414 28.3242V30.1612H236.646V21.7564H243.258V23.5935H239.006V25.0102H242.752V26.7872H239.006V28.3241H243.414V28.3242ZM248.87 30.3293C247.987 30.3293 247.194 30.1432 246.491 29.7709C245.789 29.3988 245.237 28.8805 244.835 28.2161C244.434 27.5517 244.233 26.7994 244.233 25.9588C244.233 25.1183 244.434 24.366 244.835 23.7016C245.237 23.0372 245.789 22.519 246.491 22.1467C247.194 21.7744 247.987 21.5884 248.87 21.5884C249.641 21.5884 250.335 21.7245 250.953 21.9967C251.572 22.2688 252.085 22.6611 252.495 23.1733L250.977 24.542C250.431 23.8857 249.769 23.5575 248.99 23.5575C248.533 23.5575 248.125 23.6575 247.768 23.8576C247.411 24.0577 247.134 24.3399 246.937 24.7041C246.74 25.0684 246.642 25.4867 246.642 25.9588C246.642 26.4311 246.74 26.8494 246.937 27.2135C247.134 27.5777 247.411 27.8599 247.768 28.06C248.125 28.2601 248.533 28.3602 248.99 28.3602C249.769 28.3602 250.431 28.0321 250.977 27.3756L252.495 28.7443C252.085 29.2567 251.572 29.6488 250.953 29.9211C250.335 30.1933 249.641 30.3293 248.87 30.3293ZM260.287 23.6415H257.71V30.1612H255.361V23.6415H252.772V21.7564H260.287V23.6415ZM267.525 25.7668C268.023 25.9268 268.402 26.175 268.663 26.5112C268.924 26.8474 269.055 27.2637 269.055 27.7598C269.055 28.5043 268.764 29.0905 268.181 29.5188C267.599 29.9471 266.774 30.1612 265.707 30.1612H261.383V21.7564H265.478C266.489 21.7564 267.274 21.9466 267.832 22.3268C268.39 22.707 268.669 23.2454 268.669 23.9417C268.669 24.35 268.571 24.7102 268.374 25.0224C268.178 25.3345 267.894 25.5827 267.525 25.7669V25.7668ZM263.731 25.1183H265.249C265.923 25.1183 266.261 24.8422 266.261 24.2898C266.261 23.7375 265.923 23.4613 265.249 23.4613H263.731V25.1182V25.1183ZM265.61 28.4563C266.301 28.4563 266.646 28.1641 266.646 27.5797C266.646 27.0114 266.301 26.7272 265.61 26.7272H263.731V28.4562H265.61V28.4563ZM277.112 28.3242V30.1612H270.343V21.7564H276.955V23.5935H272.704V25.0102H276.449V26.7872H272.704V28.3241H277.112V28.3242ZM286.494 21.7564V30.1612H284.109V26.8833H280.857V30.1612H278.473V21.7564H280.857V24.9143H284.109V21.7564H286.494ZM296.321 21.7564V30.1612H293.936V26.8833H290.685V30.1612H288.3V21.7564H290.685V24.9143H293.936V21.7564H296.321ZM302.27 30.3293C301.379 30.3293 300.578 30.1412 299.868 29.765C299.157 29.3887 298.599 28.8684 298.194 28.2041C297.788 27.5397 297.586 26.7914 297.586 25.9588C297.586 25.1263 297.788 24.378 298.194 23.7136C298.599 23.0491 299.157 22.5289 299.868 22.1527C300.578 21.7765 301.379 21.5884 302.27 21.5884C303.162 21.5884 303.963 21.7765 304.673 22.1527C305.384 22.5289 305.942 23.0492 306.347 23.7136C306.753 24.378 306.955 25.1263 306.955 25.9588C306.955 26.7914 306.753 27.5397 306.347 28.2041C305.942 28.8685 305.384 29.3887 304.673 29.765C303.963 30.1412 303.162 30.3293 302.27 30.3293ZM302.27 28.3602C302.696 28.3602 303.081 28.2601 303.427 28.06C303.772 27.8599 304.045 27.5777 304.246 27.2135C304.446 26.8493 304.547 26.431 304.547 25.9588C304.547 25.4866 304.446 25.0683 304.246 24.7041C304.045 24.3399 303.772 24.0577 303.427 23.8576C303.081 23.6575 302.696 23.5575 302.27 23.5575C301.845 23.5575 301.459 23.6575 301.114 23.8576C300.769 24.0577 300.496 24.3399 300.295 24.7041C300.094 25.0684 299.994 25.4867 299.994 25.9588C299.994 26.4311 300.094 26.8494 300.295 27.2135C300.496 27.5777 300.769 27.8599 301.114 28.06C301.459 28.2601 301.845 28.3602 302.27 28.3602ZM315 28.3242V30.1612H308.232V21.7564H314.844V23.5935H310.592V25.0102H314.338V26.7872H310.592V28.3241H315V28.3242ZM213.004 44.8336V48.4115H210.825V46.7186H205.429V48.4115H203.237V44.8336H203.538C204.036 44.8256 204.387 44.4854 204.592 43.8129C204.797 43.1405 204.923 42.172 204.972 40.9073L205.068 38.3137H211.86V44.8334H213.005L213.004 44.8336ZM207.055 41.1115C207.023 42.0081 206.951 42.7684 206.838 43.3928C206.726 44.0172 206.553 44.4974 206.32 44.8336H209.512V40.1989H207.091L207.055 41.1115ZM220.291 42.3242C220.789 42.4842 221.168 42.7324 221.429 43.0686C221.69 43.4048 221.82 43.8211 221.82 44.3172C221.82 45.0617 221.529 45.6479 220.947 46.0762C220.365 46.5045 219.54 46.7186 218.472 46.7186H214.149V38.3138H218.243C219.255 38.3138 220.04 38.504 220.598 38.8842C221.156 39.2644 221.435 39.8028 221.435 40.4991C221.435 40.9074 221.337 41.2676 221.14 41.5798C220.943 41.8919 220.66 42.1401 220.291 42.3243V42.3242ZM216.497 41.6757H218.015C218.689 41.6757 219.026 41.3995 219.026 40.8472C219.026 40.2949 218.689 40.0187 218.015 40.0187H216.497V41.6756V41.6757ZM218.376 45.0137C219.066 45.0137 219.412 44.7215 219.412 44.1371C219.412 43.5688 219.066 43.2846 218.376 43.2846H216.497V45.0136H218.376V45.0137ZM223.109 38.3138H225.457V43.2487L228.938 38.3138H231.178V46.7186H228.83V41.7958L225.361 46.7186H223.109V38.3138ZM240.933 43.5009H239.934V46.7187H237.597V43.5009H236.598L234.948 46.7187H232.19L234.586 42.3122L232.334 38.3139H234.839L236.525 41.5799H237.597V38.3139H239.934V41.5799H240.957L242.68 38.3139H245.173L242.92 42.3122L245.317 46.7187H242.571L240.933 43.5009ZM252.856 44.8816V46.7186H246.088V38.3138H252.7V40.1509H248.448V41.5676H252.194V43.3446H248.448V44.8815H252.856V44.8816ZM262.238 38.3138V46.7186H259.854V43.4407H256.602V46.7186H254.217V38.3138H256.602V41.4717H259.854V38.3138H262.238ZM264.045 38.3138H266.393V43.2487L269.874 38.3138H272.114V46.7186H269.765V41.7958L266.297 46.7186H264.045V38.3138ZM280.689 44.8816V46.7186H273.92V38.3138H280.532V40.1509H276.281V41.5676H280.026V43.3446H276.281V44.8815H280.689V44.8816Z" fill="#26438A"/>
</svg>
