<svg width="400" height="150" viewBox="0 0 400 150" fill="none" xmlns="http://www.w3.org/2000/svg">
<path d="M380.416 0.000605984C391.211 0.0528928 399.948 8.79881 400 19.6028C400 39.3974 364 59 364 59C364 59 328 39.1094 328 19.6028C328 8.77647 336.768 0.000605984 347.584 0.000605984C354.206 -0.0516808 360.395 3.28267 364 8.84102C367.63 3.30918 373.804 -0.0148591 380.416 0.000605984Z" fill="#E42D24"/>
<path d="M71.2205 19.7756L46.6879 58.5366L21.6461 19.7756H21.2219V55.3724H0V0H30.1352L46.6879 27.2908H47.1121L63.2409 0H92.9517V55.3724H71.7296L71.6446 19.7756H71.2205ZM136.269 40.7385C138.532 40.7385 140.23 40.3032 141.362 39.4335C142.494 38.5628 143.06 37.4161 143.06 35.9923C143.06 34.568 142.494 33.4204 141.362 32.5508C140.23 31.6812 138.532 31.2458 136.269 31.2458H122.687V40.7385H136.269ZM101.465 55.3715V0H122.687V16.6117H137.117C146.511 16.6117 153.529 18.3396 158.169 21.7935C162.81 25.2481 165.13 29.9798 165.13 35.9923C165.13 42.0034 162.81 46.7371 158.169 50.1897C153.529 53.6457 146.511 55.3715 137.117 55.3715H101.465ZM191.87 55.3724H170.648V0.00112935H191.87V55.3724Z" fill="white"/>
<path d="M229.339 55.2846H205.907L231.013 16.9804V16.191H198.374V0H256.956V13.0314L229.339 55.2843L229.339 55.2846ZM309.495 55.2846H287.735V45.4114H250.913V31.9864L278.948 0H304.054L277.274 30.0118V30.8012H287.735V22.1144H309.495V30.8012H318.699V45.4114H309.495V55.2846Z" fill="white"/>
<path d="M10.5961 110.226C8.65018 110.226 6.90194 109.813 5.35067 108.985C3.79916 108.158 2.58109 107.013 1.69596 105.552C0.810594 104.09 0.368035 102.445 0.368035 100.613C0.368035 98.7821 0.810594 97.136 1.69596 95.6745C2.58109 94.2131 3.7994 93.0688 5.35067 92.2412C6.90194 91.4139 8.65018 91 10.5961 91C12.5418 91 14.2903 91.4139 15.8415 92.2412C17.393 93.0688 18.6111 94.2133 19.4962 95.6745C20.3814 97.136 20.8242 98.7821 20.8242 100.613C20.8242 102.445 20.3814 104.09 19.4962 105.552C18.6111 107.013 17.3928 108.158 15.8415 108.985C14.2903 109.813 12.5418 110.226 10.5961 110.226ZM10.5961 105.895C11.525 105.895 12.3666 105.675 13.1203 105.235C13.8741 104.795 14.47 104.174 14.9082 103.373C15.3467 102.572 15.5657 101.652 15.5657 100.613C15.5657 99.5744 15.3467 98.6545 14.9082 97.8534C14.47 97.0523 13.8741 96.4316 13.1203 95.9914C12.3666 95.5513 11.525 95.3313 10.5961 95.3313C9.66693 95.3313 8.8256 95.5513 8.07186 95.9914C7.31812 96.4316 6.72193 97.0523 6.28372 97.8534C5.84551 98.6547 5.62653 99.5747 5.62653 100.613C5.62653 101.652 5.84551 102.572 6.28372 103.373C6.72193 104.174 7.31812 104.795 8.07186 105.235C8.8256 105.675 9.66693 105.895 10.5961 105.895ZM23.6109 91.3697H38.9924V95.4106H28.738V98.3947H33.4971C35.7234 98.3947 37.4322 98.8701 38.6244 99.8209C39.8163 100.772 40.4123 102.136 40.4123 103.915C40.4123 105.781 39.7462 107.238 38.4139 108.285C37.0816 109.333 35.2151 109.857 32.8135 109.857H23.6109V91.3697ZM32.4716 106.107C33.348 106.107 34.0142 105.931 34.47 105.578C34.9259 105.226 35.1536 104.724 35.1536 104.073C35.1536 102.77 34.2598 102.118 32.4718 102.118H28.7383V106.106H32.4718L32.4716 106.107ZM68.0462 91.3697V109.857H43.0941V91.3697H48.2212V105.71H53.033V91.3697H58.1601V105.71H62.9191V91.3697H68.0462ZM70.439 105.71V113.58H65.6536V109.857H62.8141V105.71H70.4393H70.439ZM87.7137 105.816V109.857H72.9369V91.3697H87.3718V95.4106H78.0904V98.5267H86.2675V102.435H78.0904V105.816H87.7137V105.816ZM99.6245 110.226C97.6962 110.226 95.9654 109.817 94.4315 108.998C92.8977 108.18 91.6927 107.04 90.8163 105.578C89.9399 104.117 89.5016 102.462 89.5016 100.613C89.5016 98.7643 89.9399 97.1097 90.8163 95.6483C91.6927 94.1868 92.8979 93.0469 94.4315 92.2281C95.9654 91.4093 97.6962 91 99.6245 91C101.307 91 102.823 91.2994 104.173 91.898C105.523 92.4967 106.645 93.3595 107.539 94.4862L104.226 97.4969C103.034 96.0532 101.588 95.3313 99.8875 95.3313C98.8882 95.3313 97.9987 95.5513 97.2188 95.9914C96.4387 96.4316 95.834 97.0523 95.4045 97.8534C94.975 98.6547 94.7601 99.5747 94.7601 100.613C94.7601 101.652 94.975 102.572 95.4045 103.373C95.834 104.174 96.4387 104.795 97.2188 105.235C97.9989 105.675 98.8884 105.895 99.8875 105.895C101.588 105.895 103.034 105.173 104.226 103.73L107.539 106.74C106.644 107.867 105.523 108.73 104.173 109.329C102.823 109.927 101.307 110.226 99.6245 110.226ZM124.55 95.516H118.923V109.857H113.796V95.516H108.143V91.3697H124.55V95.516ZM140.353 100.191C141.439 100.543 142.267 101.089 142.837 101.828C143.407 102.568 143.692 103.483 143.692 104.575C143.692 106.212 143.056 107.502 141.785 108.444C140.515 109.386 138.714 109.857 136.382 109.857H126.943V91.3697H135.883C138.091 91.3697 139.805 91.788 141.023 92.6243C142.241 93.4606 142.85 94.6447 142.85 96.1764C142.85 97.0744 142.636 97.8668 142.206 98.5534C141.777 99.24 141.159 99.7859 140.353 100.191V100.191ZM132.07 98.7644H135.383C136.856 98.7644 137.592 98.157 137.592 96.942C137.592 95.7272 136.856 95.1196 135.383 95.1196H132.07V98.7641V98.7644ZM136.172 106.107C137.679 106.107 138.433 105.464 138.433 104.178C138.433 102.928 137.679 102.303 136.172 102.303H132.07V106.106H136.172V106.107ZM161.282 105.816V109.857H146.505V91.3697H160.94V95.4106H151.659V98.5267H159.836V102.435H151.659V105.816H161.282V105.816ZM181.764 91.3697V109.857H176.558V102.647H169.459V109.857H164.253V91.3697H169.459V98.3157H176.558V91.3697H181.764ZM203.219 91.3697V109.857H198.013V102.647H190.914V109.857H185.708V91.3697H190.914V98.3157H198.013V91.3697H203.219ZM216.208 110.226C214.262 110.226 212.514 109.813 210.963 108.985C209.411 108.158 208.193 107.013 207.308 105.552C206.423 104.09 205.98 102.445 205.98 100.613C205.98 98.7821 206.423 97.136 207.308 95.6745C208.193 94.2131 209.411 93.0688 210.963 92.2412C212.514 91.4139 214.262 91 216.208 91C218.154 91 219.902 91.4139 221.453 92.2412C223.005 93.0688 224.223 94.2133 225.108 95.6745C225.993 97.136 226.436 98.7821 226.436 100.613C226.436 102.445 225.993 104.09 225.108 105.552C224.223 107.013 223.005 108.158 221.453 108.985C219.902 109.813 218.154 110.226 216.208 110.226ZM216.208 105.895C217.137 105.895 217.979 105.675 218.732 105.235C219.486 104.795 220.082 104.174 220.52 103.373C220.959 102.572 221.178 101.652 221.178 100.613C221.178 99.5744 220.959 98.6545 220.52 97.8534C220.082 97.0523 219.486 96.4316 218.732 95.9914C217.979 95.5513 217.137 95.3313 216.208 95.3313C215.279 95.3313 214.438 95.5513 213.684 95.9914C212.93 96.4316 212.334 97.0523 211.896 97.8534C211.457 98.6547 211.238 99.5747 211.238 100.613C211.238 101.652 211.457 102.572 211.896 103.373C212.334 104.174 212.93 104.795 213.684 105.235C214.438 105.675 215.279 105.895 216.208 105.895ZM244 105.816V109.857H229.223V91.3697H243.658V95.4106H234.377V98.5267H242.554V102.435H234.377V105.816H244V105.816ZM21.3236 142.13V150H16.5648V146.276H4.78521V150H0V142.13H0.657193C1.74412 142.112 2.51092 141.364 2.95808 139.885C3.405 138.406 3.68109 136.276 3.78635 133.494L3.99661 127.789H18.826V142.13H21.3238L21.3236 142.13ZM8.33488 133.943C8.26495 135.915 8.1072 137.587 7.8616 138.961C7.61624 140.334 7.2395 141.391 6.73113 142.13H13.6989V131.936H8.41378L8.33488 133.943ZM37.2311 136.61C38.3178 136.962 39.1461 137.508 39.7159 138.248C40.2855 138.987 40.5706 139.903 40.5706 140.994C40.5706 142.632 39.9349 143.921 38.6641 144.863C37.3933 145.805 35.5923 146.276 33.2609 146.276H23.8217V127.789H32.7612C34.9699 127.789 36.6833 128.207 37.9016 129.044C39.1199 129.88 39.729 131.064 39.729 132.596C39.729 133.494 39.5144 134.286 39.0849 134.973C38.6554 135.66 38.0374 136.205 37.2311 136.611V136.61ZM28.9488 135.184H32.2618C33.7342 135.184 34.4705 134.577 34.4705 133.362C34.4705 132.147 33.7342 131.539 32.2618 131.539H28.9488V135.184V135.184ZM33.0506 142.526C34.5581 142.526 35.3118 141.883 35.3118 140.598C35.3118 139.348 34.5581 138.723 33.0506 138.723H28.9488V142.526H33.0506V142.526ZM43.3837 127.789H48.5108V138.644L56.1096 127.789H61.0003V146.276H55.873V135.448L48.3005 146.276H43.3837V127.789ZM82.2975 139.199H80.1152V146.277H75.0142V139.199H72.8316L69.2297 146.277H63.2085L68.4409 136.584L63.524 127.789H68.993L72.6739 134.973H75.0142V127.789H80.1152V134.973H82.35L86.11 127.789H91.5526L86.6358 136.584L91.8681 146.277H85.8733L82.2975 139.199ZM108.328 142.236V146.276H93.551V127.789H107.986V131.83H98.7045V134.946H106.882V138.855H98.7045V142.235H108.328V142.236ZM128.81 127.789V146.276H123.604V139.066H116.505V146.276H111.299V127.789H116.505V134.735H123.604V127.789H128.81ZM132.754 127.789H137.881V138.644L145.48 127.789H150.371V146.276H145.243V135.448L137.671 146.276H132.754V127.789ZM169.091 142.236V146.276H154.314V127.789H168.749V131.83H159.468V134.946H167.645V138.855H159.468V142.235H169.091V142.236Z" fill="white"/>
</svg>
