<svg width="278" height="70" viewBox="0 0 278 70" fill="none" xmlns="http://www.w3.org/2000/svg">
<rect x="0.5" y="0.5" width="277" height="69" rx="34.5" stroke="#26438A"/>
<path d="M147.016 26.0002C150.314 26.0161 152.984 28.6844 153 31.9805C153 38.0195 142 44 142 44C142 44 131 37.9317 131 31.9805C131 28.6776 133.679 26.0002 136.984 26.0002C139.007 25.9842 140.898 27.0015 142 28.6973C143.109 27.0096 144.996 25.9955 147.016 26.0002Z" fill="#E42D24"/>
<path d="M51.9003 32.081L44.3565 44L36.6562 32.081H36.5257V43.027H30V26H39.2666L44.3565 34.3919H44.487L49.4466 26H58.5827V43.027H52.0568L52.0307 32.081H51.9003ZM71.9026 38.5271C72.5985 38.5271 73.1206 38.3932 73.4688 38.1258C73.8168 37.8581 73.991 37.5054 73.991 37.0676C73.991 36.6297 73.8168 36.2768 73.4688 36.0094C73.1206 35.742 72.5985 35.6081 71.9026 35.6081H67.7264V38.5271H71.9026ZM61.2006 43.0267V26H67.7264V31.1081H72.1635C75.0521 31.1081 77.2101 31.6394 78.6371 32.7015C80.064 33.7638 80.7776 35.2188 80.7776 37.0676C80.7776 38.916 80.064 40.3717 78.6371 41.4333C77.2101 42.4961 75.0521 43.0267 72.1635 43.0267H61.2006ZM89 43.027H82.4743V26.0003H89V43.027Z" fill="#26438A"/>
<path d="M100.522 43H93.3162L101.036 31.2215V30.9787H91V26H109.014V30.0072L100.522 42.9999L100.522 43ZM125.169 43H118.478V39.964H107.156V35.8358L115.777 26H123.497L115.262 35.2286V35.4714H118.478V32.8002H125.169V35.4714H128V39.964H125.169V43Z" fill="#26438A"/>
<path d="M176.257 31.8657C175.659 31.8657 175.121 31.7395 174.645 31.487C174.168 31.2345 173.793 30.8854 173.521 30.4396C173.249 29.9937 173.113 29.4916 173.113 28.9328C173.113 28.3742 173.249 27.872 173.521 27.4261C173.793 26.9803 174.168 26.6312 174.645 26.3787C175.121 26.1263 175.659 26 176.257 26C176.855 26 177.392 26.1263 177.869 26.3787C178.346 26.6312 178.721 26.9803 178.993 27.4261C179.265 27.872 179.401 28.3742 179.401 28.9328C179.401 29.4916 179.265 29.9937 178.993 30.4396C178.721 30.8854 178.346 31.2345 177.869 31.487C177.392 31.7395 176.855 31.8657 176.257 31.8657ZM176.257 30.5443C176.543 30.5443 176.801 30.4772 177.033 30.3429C177.265 30.2086 177.448 30.0192 177.582 29.7748C177.717 29.5304 177.785 29.2497 177.785 28.9328C177.785 28.6159 177.717 28.3353 177.582 28.0909C177.448 27.8465 177.265 27.6571 177.033 27.5228C176.801 27.3885 176.543 27.3214 176.257 27.3214C175.971 27.3214 175.713 27.3885 175.481 27.5228C175.249 27.6571 175.066 27.8465 174.931 28.0909C174.797 28.3353 174.729 28.616 174.729 28.9328C174.729 29.2498 174.797 29.5305 174.931 29.7748C175.066 30.0192 175.249 30.2086 175.481 30.3429C175.713 30.4772 175.971 30.5443 176.257 30.5443ZM180.257 26.1128H184.985V27.3456H181.833V28.256H183.296C183.981 28.256 184.506 28.401 184.872 28.6911C185.239 28.9812 185.422 29.3975 185.422 29.94C185.422 30.5094 185.217 30.9539 184.808 31.2735C184.398 31.5931 183.824 31.7529 183.086 31.7529H180.257V26.1128ZM182.981 30.6088C183.25 30.6088 183.455 30.5551 183.595 30.4476C183.735 30.3402 183.805 30.1871 183.805 29.9884C183.805 29.5908 183.531 29.3921 182.981 29.3921H181.833V30.6087H182.981L182.981 30.6088ZM193.916 26.1128V31.7529H186.246V26.1128H187.822V30.4879H189.301V26.1128H190.877V30.4879H192.34V26.1128H193.916ZM194.651 30.4879V32.889H193.18V31.7529H192.308V30.4879H194.651H194.651ZM199.961 30.5202V31.7529H195.419V26.1128H199.856V27.3456H197.003V28.2963H199.517V29.4887H197.003V30.5201H199.961V30.5202ZM203.622 31.8657C203.03 31.8657 202.498 31.7408 202.026 31.491C201.555 31.2413 201.184 30.8934 200.915 30.4476C200.645 30.0018 200.511 29.4969 200.511 28.9328C200.511 28.3688 200.645 27.864 200.915 27.4181C201.184 26.9723 201.555 26.6245 202.026 26.3747C202.498 26.1249 203.03 26 203.622 26C204.14 26 204.606 26.0913 205.02 26.274C205.435 26.4566 205.78 26.7198 206.055 27.0636L205.037 27.9821C204.67 27.5416 204.226 27.3214 203.703 27.3214C203.396 27.3214 203.123 27.3885 202.883 27.5228C202.643 27.6571 202.457 27.8465 202.325 28.0909C202.193 28.3353 202.127 28.616 202.127 28.9328C202.127 29.2498 202.193 29.5305 202.325 29.7748C202.457 30.0192 202.643 30.2086 202.883 30.3429C203.123 30.4772 203.396 30.5443 203.703 30.5443C204.226 30.5443 204.67 30.3241 205.037 29.8836L206.055 30.8021C205.78 31.1459 205.435 31.4091 205.02 31.5918C204.606 31.7744 204.14 31.8657 203.622 31.8657ZM211.284 27.3778H209.554V31.7529H207.978V27.3778H206.241V26.1128H211.284V27.3778ZM216.141 28.804C216.475 28.9113 216.73 29.0779 216.905 29.3035C217.08 29.5292 217.168 29.8085 217.168 30.1414C217.168 30.641 216.972 31.0344 216.582 31.3218C216.191 31.6092 215.637 31.7529 214.921 31.7529H212.019V26.1128H214.767C215.446 26.1128 215.973 26.2404 216.347 26.4955C216.722 26.7507 216.909 27.1119 216.909 27.5792C216.909 27.8532 216.843 28.0949 216.711 28.3044C216.579 28.5139 216.389 28.6804 216.141 28.804V28.804ZM213.595 28.3688H214.614C215.066 28.3688 215.293 28.1835 215.293 27.8128C215.293 27.4422 215.066 27.2568 214.614 27.2568H213.595V28.3687V28.3688ZM214.856 30.6088C215.32 30.6088 215.551 30.4127 215.551 30.0205C215.551 29.6392 215.32 29.4485 214.856 29.4485H213.595V30.6087H214.856V30.6088ZM222.574 30.5202V31.7529H218.032V26.1128H222.469V27.3456H219.616V28.2963H222.13V29.4887H219.616V30.5201H222.574V30.5202ZM228.87 26.1128V31.7529H227.27V29.5533H225.088V31.7529H223.488V26.1128H225.088V28.2319H227.27V26.1128H228.87ZM235.465 26.1128V31.7529H233.865V29.5533H231.683V31.7529H230.082V26.1128H231.683V28.2319H233.865V26.1128H235.465ZM239.457 31.8657C238.859 31.8657 238.322 31.7395 237.845 31.487C237.368 31.2345 236.994 30.8854 236.722 30.4396C236.45 29.9937 236.314 29.4916 236.314 28.9328C236.314 28.3742 236.45 27.872 236.722 27.4261C236.994 26.9803 237.368 26.6312 237.845 26.3787C238.322 26.1263 238.859 26 239.457 26C240.055 26 240.593 26.1263 241.07 26.3787C241.547 26.6312 241.921 26.9803 242.193 27.4261C242.465 27.872 242.601 28.3742 242.601 28.9328C242.601 29.4916 242.465 29.9937 242.193 30.4396C241.921 30.8854 241.547 31.2345 241.07 31.487C240.593 31.7395 240.055 31.8657 239.457 31.8657ZM239.457 30.5443C239.743 30.5443 240.002 30.4772 240.233 30.3429C240.465 30.2086 240.648 30.0192 240.783 29.7748C240.918 29.5304 240.985 29.2497 240.985 28.9328C240.985 28.6159 240.918 28.3353 240.783 28.0909C240.648 27.8465 240.465 27.6571 240.233 27.5228C240.002 27.3885 239.743 27.3214 239.457 27.3214C239.172 27.3214 238.913 27.3885 238.682 27.5228C238.45 27.6571 238.267 27.8465 238.132 28.0909C237.997 28.3353 237.93 28.616 237.93 28.9328C237.93 29.2498 237.997 29.5305 238.132 29.7748C238.267 30.0192 238.45 30.2086 238.682 30.3429C238.913 30.4772 239.172 30.5443 239.457 30.5443ZM248 30.5202V31.7529H243.458V26.1128H247.895V27.3456H245.042V28.2963H247.555V29.4887H245.042V30.5201H248V30.5202ZM179.554 41.599V44H178.092V42.864H174.471V44H173V41.599H173.202C173.536 41.5936 173.772 41.3653 173.909 40.914C174.047 40.4628 174.131 39.8129 174.164 38.9642L174.228 37.2237H178.787V41.5989H179.554L179.554 41.599ZM175.562 39.1012C175.54 39.7029 175.492 40.2131 175.416 40.6321C175.341 41.0511 175.225 41.3734 175.069 41.599H177.211V38.4888H175.586L175.562 39.1012ZM184.444 39.915C184.778 40.0224 185.033 40.1889 185.208 40.4146C185.383 40.6402 185.47 40.9195 185.47 41.2525C185.47 41.7521 185.275 42.1454 184.884 42.4328C184.494 42.7203 183.94 42.864 183.224 42.864H180.322V37.2238H183.07C183.749 37.2238 184.276 37.3514 184.65 37.6066C185.025 37.8617 185.212 38.223 185.212 38.6903C185.212 38.9643 185.146 39.206 185.014 39.4155C184.882 39.6249 184.692 39.7915 184.444 39.9151V39.915ZM181.898 39.4798H182.917C183.369 39.4798 183.595 39.2945 183.595 38.9239C183.595 38.5533 183.369 38.3679 182.917 38.3679H181.898V39.4798V39.4798ZM183.159 41.7198C183.622 41.7198 183.854 41.5238 183.854 41.1316C183.854 40.7502 183.622 40.5595 183.159 40.5595H181.898V41.7198H183.159V41.7198ZM186.335 37.2238H187.911V40.5354L190.247 37.2238H191.75V42.864H190.174V39.5604L187.846 42.864H186.335V37.2238ZM198.296 40.7046H197.626V42.864H196.058V40.7046H195.387L194.28 42.864H192.429L194.037 39.907L192.526 37.2239H194.207L195.338 39.4155H196.058V37.2239H197.626V39.4155H198.313L199.468 37.2239H201.141L199.63 39.907L201.238 42.864H199.395L198.296 40.7046ZM206.297 41.6312V42.864H201.755V37.2238H206.192V38.4566H203.339V39.4073H205.853V40.5998H203.339V41.6311H206.297V41.6312ZM212.593 37.2238V42.864H210.993V40.6643H208.811V42.864H207.211V37.2238H208.811V39.343H210.993V37.2238H212.593ZM213.806 37.2238H215.381V40.5354L217.717 37.2238H219.22V42.864H217.644V39.5604L215.317 42.864H213.806V37.2238ZM224.975 41.6312V42.864H220.433V37.2238H224.87V38.4566H222.017V39.4073H224.53V40.5998H222.017V41.6311H224.975V41.6312Z" fill="#26438A"/>
</svg>
