<svg width="381" height="236" viewBox="0 0 381 236" fill="none" xmlns="http://www.w3.org/2000/svg">
<path d="M368.092 343.188H209.48V229.732C209.48 183.824 213.432 147.699 221.334 121.357C229.613 94.64 244.665 70.7448 266.49 49.6719C288.316 28.599 316.162 12.0417 350.029 0L381.074 65.4766C349.465 76.013 326.699 90.6888 312.775 109.504C299.229 128.319 292.079 153.343 291.326 184.576H368.092V343.188Z" fill="#26438A" fill-opacity="0.1"/>
<path d="M158.611 343.188H0V229.732C0 183.824 3.95117 147.699 11.8535 121.357C20.1322 94.64 35.1842 70.7448 57.0098 49.6719C78.8353 28.599 106.682 12.0417 140.549 0L171.594 65.4766C139.984 76.013 117.218 90.6888 103.295 109.504C89.748 128.319 82.5983 153.343 81.8457 184.576H158.611V343.188Z" fill="#26438A" fill-opacity="0.1"/>
</svg>
