<svg width="40" height="40" viewBox="0 0 40 40" fill="none" xmlns="http://www.w3.org/2000/svg">
<rect width="40" height="40" rx="20" fill="#26438A"/>
<path d="M15.0502 23.5355C14.6597 23.926 14.6597 24.5592 15.0502 24.9497C15.4407 25.3402 16.0739 25.3402 16.4644 24.9497L15.0502 23.5355ZM25.2426 15.7573C25.2426 15.205 24.7949 14.7573 24.2426 14.7573L15.2426 14.7573C14.6903 14.7573 14.2426 15.205 14.2426 15.7573C14.2426 16.3096 14.6903 16.7573 15.2426 16.7573L23.2426 16.7573L23.2426 24.7573C23.2426 25.3096 23.6903 25.7573 24.2426 25.7573C24.7949 25.7573 25.2426 25.3096 25.2426 24.7573L25.2426 15.7573ZM16.4644 24.9497L24.9497 16.4644L23.5355 15.0502L15.0502 23.5355L16.4644 24.9497Z" fill="white"/>
</svg>
