<?xml version="1.0" encoding="utf-8"?><svg viewBox="0 0 16 16" xmlns="http://www.w3.org/2000/svg" xmlns:xlink="http://www.w3.org/1999/xlink"><style>:root>svg{display:none}:root>svg:target{display:block}</style><svg fill="none" viewBox="0 0 16 16" id="arrow-next" xmlns="http://www.w3.org/2000/svg"><path d="M6.94 4 6 4.94 9.053 8 6 11.06l.94.94 4-4-4-4Z" fill="#939393"/></svg><svg fill="none" viewBox="0 0 16 16" id="arrow-prev" xmlns="http://www.w3.org/2000/svg"><path d="m10.06 12 .94-.94L7.947 8 11 4.94 10.06 4l-4 4 4 4Z" fill="#939393"/></svg><svg fill="none" viewBox="0 0 16 16" id="arrows-next" xmlns="http://www.w3.org/2000/svg"><path d="m4.274 4-.94.94L6.387 8l-3.053 3.06.94.94 4-4-4-4Z" fill="#939393"/><path d="m8.667 4-.94.94L10.78 8l-3.053 3.06.94.94 4-4-4-4Z" fill="#939393"/></svg><svg fill="none" viewBox="0 0 16 16" id="arrows-prev" xmlns="http://www.w3.org/2000/svg"><path d="m11.726 12 .94-.94L9.613 8l3.053-3.06-.94-.94-4 4 4 4Z" fill="#939393"/><path d="m7.333 12 .94-.94L5.22 8l3.053-3.06-.94-.94-4 4 4 4Z" fill="#939393"/></svg></svg>